<?xml version="1.0" encoding="utf-8"?>
<!-- Generator: Adobe Illustrator 23.0.3, SVG Export Plug-In . SVG Version: 6.00 Build 0)  -->
<svg version="1.1" id="レイヤー_1" xmlns="http://www.w3.org/2000/svg" xmlns:xlink="http://www.w3.org/1999/xlink" x="0px"
	 y="0px" width="378px" height="54px" viewBox="0 0 378 54" style="enable-background:new 0 0 378 54;" xml:space="preserve">
<style type="text/css">
	.st0{fill-rule:evenodd;clip-rule:evenodd;}
	.st1{fill-rule:evenodd;clip-rule:evenodd;fill:#004E87;}
	.st2{fill:#CD1B2F;}
	.st3{fill:#004E87;}
</style>
<g>
	<path class="st0" d="M69.6,25.5v9.4c0,1.6-0.3,2.7-1,3.4c-0.7,0.7-1.8,1-3.2,1c-0.9,0-1.5-0.1-2-0.2v-2c0.8,0.1,1.3,0.1,1.6,0.1
		c0.8,0,1.4-0.1,1.7-0.5c0.3-0.3,0.5-0.9,0.5-1.9v-9.4H69.6z"/>
	<path class="st0" d="M77.4,34c-3,0-4.4,0.7-4.4,2.1c0,0.4,0.1,0.8,0.4,1.1c0.3,0.3,0.7,0.4,1.3,0.4c0.9,0,1.5-0.3,2-0.8
		c0.4-0.5,0.7-1.2,0.7-1.9V34z M79.9,39.2h-2.2c-0.2-0.6-0.3-1.3-0.3-2c-0.6,1.5-1.8,2.2-3.4,2.2c-1,0-1.8-0.3-2.4-0.9
		c-0.6-0.6-0.9-1.3-0.9-2.2c0-2.3,2-3.5,6.1-3.5l0.7,0V32c0-1-0.7-1.6-2.1-1.6c-1.4,0-2.2,0.5-2.4,1.6L71,31.7
		c0.1-0.8,0.5-1.5,1.3-2.1c0.8-0.5,1.9-0.8,3.3-0.8c0.8,0,1.4,0.1,1.9,0.2c0.5,0.1,0.9,0.4,1.3,0.7c0.3,0.3,0.6,0.6,0.7,1
		c0.1,0.4,0.2,1,0.2,1.8v4.6C79.6,37.8,79.7,38.5,79.9,39.2z"/>
	<path class="st0" d="M84.8,35c0,0.7,0.2,1.3,0.7,1.8c0.4,0.5,0.9,0.7,1.5,0.7c0.7,0,1.3-0.3,1.6-1c0.3-0.6,0.5-1.4,0.5-2.4
		c0-1-0.2-1.9-0.5-2.5c-0.3-0.6-0.9-1-1.5-1c-0.6,0-1.1,0.3-1.5,0.8c-0.4,0.5-0.6,1.2-0.6,2.1V35z M84.8,42.6h-2.3V29.1h2.2v1.8
		c0.7-1.3,1.7-2,3.1-2c1.1,0,2,0.5,2.7,1.5c0.7,1,1,2.2,1,3.7c0,1.4-0.3,2.7-1,3.7c-0.6,1.1-1.6,1.6-2.8,1.6c-1.3,0-2.2-0.5-2.8-1.6
		V42.6z"/>
	<path class="st0" d="M98.8,34c-2.9,0-4.4,0.7-4.4,2.1c0,0.4,0.1,0.8,0.4,1.1c0.3,0.3,0.8,0.4,1.3,0.4c0.9,0,1.5-0.3,2-0.8
		c0.4-0.5,0.7-1.2,0.7-1.9V34z M101.4,39.2h-2.2c-0.2-0.6-0.3-1.3-0.4-2c-0.6,1.5-1.8,2.2-3.4,2.2c-1,0-1.8-0.3-2.4-0.9
		c-0.6-0.6-0.9-1.3-0.9-2.2c0-2.3,2-3.5,6.1-3.5l0.6,0V32c0-1-0.7-1.6-2.1-1.6c-1.4,0-2.2,0.5-2.4,1.6l-1.9-0.3
		c0.1-0.8,0.5-1.5,1.3-2.1c0.8-0.5,1.9-0.8,3.3-0.8c0.8,0,1.4,0.1,1.9,0.2c0.5,0.1,0.9,0.4,1.3,0.7c0.3,0.3,0.6,0.6,0.7,1
		c0.1,0.4,0.2,1,0.2,1.8v4.6C101.1,37.8,101.2,38.5,101.4,39.2z"/>
	<path class="st0" d="M111.3,39.2h-2.3v-6.3c0-0.7-0.1-1.2-0.5-1.5c-0.3-0.3-0.7-0.5-1.1-0.5c-0.6,0-1.1,0.3-1.6,0.8
		c-0.4,0.5-0.7,1.3-0.7,2.3v5.2H103V29.1h2.1v2.3c0.7-1.7,1.7-2.6,3.1-2.6c0.9,0,1.7,0.3,2.3,0.8c0.6,0.6,0.9,1.5,0.9,3V39.2z"/>
	<path class="st0" d="M116.6,35.9l2.4-0.5c0.3,1.4,1.4,2,3.3,2c0.9,0,1.5-0.2,2-0.5c0.5-0.4,0.7-0.8,0.7-1.3c0-0.4-0.1-0.7-0.3-1
		c-0.2-0.3-0.7-0.6-1.4-0.8l-2.6-0.7c-0.9-0.2-1.5-0.5-2-0.8c-0.4-0.3-0.8-0.7-1-1.3c-0.3-0.5-0.4-1.1-0.4-1.7
		c0-1.2,0.5-2.2,1.4-2.9c0.9-0.7,2.1-1.1,3.5-1.1c1.2,0,2.2,0.3,3.1,0.8c0.9,0.5,1.5,1.2,1.8,2.2l-2.3,0.6c-0.4-1-1.2-1.5-2.5-1.5
		c-0.8,0-1.4,0.2-1.8,0.5c-0.4,0.3-0.6,0.7-0.6,1.2c0,0.8,0.6,1.3,1.9,1.6l2.3,0.6c1.4,0.4,2.4,0.9,2.8,1.6c0.5,0.7,0.7,1.5,0.7,2.3
		c0,1.3-0.5,2.4-1.5,3.2c-1,0.8-2.3,1.2-3.9,1.2c-1.4,0-2.5-0.3-3.6-0.9C117.6,38,116.9,37.1,116.6,35.9z"/>
	<path class="st0" d="M134.9,35.5l2,0.2c-0.3,1.3-0.7,2.2-1.5,2.8c-0.7,0.6-1.6,0.9-2.6,0.9c-1.4,0-2.5-0.5-3.2-1.5
		c-0.8-1-1.1-2.3-1.1-3.7c0-1.5,0.4-2.8,1.2-3.8c0.8-1,1.9-1.5,3.3-1.5c2.2,0,3.5,1.2,3.9,3.5l-2,0.3c-0.2-1.3-0.8-1.9-1.9-1.9
		c-0.8,0-1.3,0.3-1.7,1c-0.4,0.7-0.5,1.5-0.5,2.4c0,1,0.2,1.8,0.5,2.4c0.4,0.5,0.9,0.8,1.5,0.8C133.9,37.4,134.6,36.7,134.9,35.5z"
		/>
	<path class="st0" d="M139.7,39.2h-2.3V29.1h2.3V39.2z M139.7,27.9h-2.3v-2.4h2.3V27.9z"/>
	<path class="st0" d="M148.4,32.9c0-0.7-0.2-1.3-0.7-1.8c-0.4-0.5-1-0.7-1.6-0.7c-0.6,0-1.2,0.2-1.6,0.6c-0.4,0.4-0.7,1-0.7,1.8
		H148.4z M148.5,35.9l2.1,0.3c-0.3,0.9-0.8,1.7-1.6,2.3c-0.8,0.6-1.7,0.9-2.9,0.9c-1.4,0-2.5-0.5-3.4-1.4c-0.9-0.9-1.3-2.2-1.3-3.8
		c0-1.5,0.4-2.8,1.3-3.8c0.9-1,2-1.5,3.5-1.5c1.4,0,2.6,0.5,3.3,1.5c0.8,1,1.2,2.3,1.2,3.8l0,0.3h-6.9c0,0.7,0.1,1.2,0.2,1.7
		c0.1,0.4,0.4,0.8,0.8,1.1c0.4,0.3,0.9,0.5,1.4,0.5C147.4,37.6,148.1,37,148.5,35.9z"/>
	<path class="st0" d="M160.7,39.2h-2.3v-6.3c0-0.7-0.1-1.2-0.5-1.5c-0.3-0.3-0.7-0.5-1.1-0.5c-0.6,0-1.1,0.3-1.6,0.8
		c-0.4,0.5-0.7,1.3-0.7,2.3v5.2h-2.3V29.1h2.1v2.3c0.7-1.7,1.8-2.6,3.1-2.6c0.9,0,1.7,0.3,2.3,0.8c0.6,0.6,0.9,1.5,0.9,3V39.2z"/>
	<path class="st0" d="M168.5,35.5l2,0.2c-0.3,1.3-0.7,2.2-1.5,2.8c-0.7,0.6-1.6,0.9-2.6,0.9c-1.4,0-2.5-0.5-3.2-1.5
		c-0.8-1-1.1-2.3-1.1-3.7c0-1.5,0.4-2.8,1.2-3.8c0.8-1,1.9-1.5,3.3-1.5c2.2,0,3.5,1.2,3.9,3.5l-2,0.3c-0.2-1.3-0.8-1.9-1.9-1.9
		c-0.8,0-1.3,0.3-1.7,1c-0.3,0.7-0.5,1.5-0.5,2.4c0,1,0.2,1.8,0.5,2.4c0.4,0.5,0.9,0.8,1.5,0.8C167.5,37.4,168.1,36.7,168.5,35.5z"
		/>
	<path class="st0" d="M178.2,32.9c0-0.7-0.2-1.3-0.7-1.8c-0.4-0.5-1-0.7-1.6-0.7c-0.6,0-1.1,0.2-1.6,0.6c-0.4,0.4-0.7,1-0.7,1.8
		H178.2z M178.4,35.9l2.1,0.3c-0.3,0.9-0.8,1.7-1.6,2.3c-0.8,0.6-1.7,0.9-2.9,0.9c-1.4,0-2.5-0.5-3.4-1.4c-0.9-0.9-1.3-2.2-1.3-3.8
		c0-1.5,0.4-2.8,1.3-3.8c0.9-1,2-1.5,3.5-1.5c1.4,0,2.6,0.5,3.3,1.5c0.8,1,1.2,2.3,1.2,3.8l0,0.3h-6.9c0,0.7,0.1,1.2,0.2,1.7
		c0.1,0.4,0.4,0.8,0.8,1.1c0.4,0.3,0.9,0.5,1.4,0.5C177.2,37.6,178,37,178.4,35.9z"/>
	<path class="st0" d="M192,34c-2.9,0-4.4,0.7-4.4,2.1c0,0.4,0.1,0.8,0.4,1.1c0.3,0.3,0.7,0.4,1.3,0.4c0.9,0,1.5-0.3,2-0.8
		c0.4-0.5,0.7-1.2,0.7-1.9V34z M194.6,39.2h-2.2c-0.2-0.6-0.3-1.3-0.4-2c-0.6,1.5-1.8,2.2-3.4,2.2c-1,0-1.8-0.3-2.4-0.9
		c-0.6-0.6-0.9-1.3-0.9-2.2c0-2.3,2-3.5,6.1-3.5l0.6,0V32c0-1-0.7-1.6-2.1-1.6c-1.4,0-2.2,0.5-2.4,1.6l-1.9-0.3
		c0.1-0.8,0.5-1.5,1.3-2.1c0.8-0.5,1.9-0.8,3.3-0.8c0.8,0,1.4,0.1,1.9,0.2c0.5,0.1,0.9,0.4,1.3,0.7c0.3,0.3,0.6,0.6,0.7,1
		c0.1,0.4,0.2,1,0.2,1.8v4.6C194.3,37.8,194.4,38.5,194.6,39.2z"/>
	<path class="st0" d="M205.5,39.2h-2.3v-6.3c0-0.7-0.1-1.2-0.5-1.5c-0.3-0.3-0.7-0.5-1.1-0.5c-0.6,0-1.1,0.3-1.6,0.8
		c-0.4,0.5-0.7,1.3-0.7,2.3v5.2h-2.3V29.1h2.1v2.3c0.7-1.7,1.8-2.6,3.1-2.6c0.9,0,1.7,0.3,2.3,0.8c0.6,0.6,0.9,1.5,0.9,3V39.2z"/>
	<path class="st0" d="M213.4,33.2c0-0.8-0.2-1.5-0.6-1.9c-0.4-0.5-0.9-0.7-1.5-0.7c-0.7,0-1.2,0.3-1.6,0.9c-0.4,0.6-0.6,1.5-0.6,2.6
		c0,2.3,0.7,3.4,2.1,3.4c0.6,0,1.1-0.2,1.5-0.7c0.4-0.5,0.6-1.1,0.6-1.9V33.2z M215.7,39.2h-2.1v-2c-0.6,1.5-1.6,2.2-3,2.2
		c-1.2,0-2.2-0.5-2.9-1.5c-0.7-1-1-2.3-1-3.9c0-1.4,0.3-2.7,1-3.7c0.7-1.1,1.7-1.6,2.9-1.6c1.3,0,2.2,0.6,2.7,1.8v-4.9h2.3V39.2z"/>
	<polygon class="st0" points="226.2,39.2 223.6,39.2 223.6,27.6 220,27.6 220,25.5 229.9,25.5 229.9,27.6 226.2,27.6 	"/>
	<path class="st0" d="M236,32.9c0-0.7-0.2-1.3-0.7-1.8c-0.4-0.5-1-0.7-1.6-0.7c-0.6,0-1.1,0.2-1.6,0.6c-0.4,0.4-0.7,1-0.7,1.8H236z
		 M236.1,35.9l2.1,0.3c-0.3,0.9-0.8,1.7-1.6,2.3c-0.8,0.6-1.7,0.9-2.9,0.9c-1.4,0-2.5-0.5-3.4-1.4c-0.9-0.9-1.3-2.2-1.3-3.8
		c0-1.5,0.4-2.8,1.3-3.8c0.9-1,2-1.5,3.5-1.5c1.4,0,2.6,0.5,3.3,1.5c0.8,1,1.2,2.3,1.2,3.8l0,0.3h-6.9c0,0.7,0.1,1.2,0.2,1.7
		c0.1,0.4,0.4,0.8,0.8,1.1c0.4,0.3,0.9,0.5,1.4,0.5C235,37.6,235.8,37,236.1,35.9z"/>
	<path class="st0" d="M245.8,35.5l2,0.2c-0.2,1.3-0.7,2.2-1.5,2.8c-0.7,0.6-1.6,0.9-2.6,0.9c-1.4,0-2.5-0.5-3.2-1.5
		c-0.8-1-1.1-2.3-1.1-3.7c0-1.5,0.4-2.8,1.2-3.8c0.8-1,1.9-1.5,3.3-1.5c2.2,0,3.5,1.2,3.9,3.5l-2,0.3c-0.2-1.3-0.8-1.9-1.9-1.9
		c-0.8,0-1.3,0.3-1.7,1c-0.4,0.7-0.5,1.5-0.5,2.4c0,1,0.2,1.8,0.5,2.4c0.4,0.5,0.9,0.8,1.5,0.8C244.8,37.4,245.5,36.7,245.8,35.5z"
		/>
	<path class="st0" d="M257.7,39.2h-2.3v-6.6c0-0.7-0.2-1.2-0.5-1.5c-0.3-0.3-0.7-0.4-1.1-0.4c-0.6,0-1.2,0.3-1.6,0.8
		c-0.4,0.5-0.7,1.4-0.7,2.5v5.2h-2.3V25.5h2.3v5.3c0.6-1.5,1.6-2.2,3-2.2c2.1,0,3.1,1.2,3.1,3.6V39.2z"/>
	<path class="st0" d="M267.9,39.2h-2.3v-6.3c0-0.7-0.1-1.2-0.5-1.5c-0.3-0.3-0.7-0.5-1.1-0.5c-0.6,0-1.1,0.3-1.6,0.8
		c-0.5,0.5-0.7,1.3-0.7,2.3v5.2h-2.3V29.1h2.1v2.3c0.7-1.7,1.8-2.6,3.1-2.6c0.9,0,1.6,0.3,2.3,0.8c0.6,0.6,0.9,1.5,0.9,3V39.2z"/>
	<path class="st0" d="M273.8,37.5c1.5,0,2.3-1.1,2.3-3.4c0-1-0.2-1.9-0.6-2.4c-0.4-0.6-0.9-0.9-1.7-0.9c-0.8,0-1.4,0.3-1.8,0.9
		c-0.4,0.6-0.6,1.4-0.6,2.5c0,1.1,0.2,1.9,0.6,2.5C272.6,37.2,273.1,37.5,273.8,37.5z M273.7,39.4c-1.5,0-2.6-0.5-3.4-1.6
		c-0.8-1.1-1.2-2.3-1.2-3.7c0-1.5,0.4-2.7,1.3-3.7c0.9-1,2-1.5,3.4-1.5c1.4,0,2.5,0.5,3.3,1.4c0.9,1,1.3,2.2,1.3,3.8
		c0,1.6-0.5,2.9-1.4,3.8C276.3,38.9,275.1,39.4,273.7,39.4z"/>
	<rect x="280" y="25.5" class="st0" width="2.3" height="13.6"/>
	<path class="st0" d="M288.7,37.5c1.5,0,2.3-1.1,2.3-3.4c0-1-0.2-1.9-0.5-2.4c-0.4-0.6-0.9-0.9-1.7-0.9c-0.8,0-1.4,0.3-1.8,0.9
		c-0.4,0.6-0.6,1.4-0.6,2.5c0,1.1,0.2,1.9,0.6,2.5C287.5,37.2,288,37.5,288.7,37.5z M288.7,39.4c-1.5,0-2.6-0.5-3.4-1.6
		c-0.8-1.1-1.2-2.3-1.2-3.7c0-1.5,0.4-2.7,1.3-3.7c0.9-1,2-1.5,3.4-1.5c1.4,0,2.5,0.5,3.3,1.4c0.9,1,1.3,2.2,1.3,3.8
		c0,1.6-0.5,2.9-1.4,3.8C291.2,38.9,290,39.4,288.7,39.4z"/>
	<path class="st0" d="M296.5,38.6c-0.3,0.3-0.5,0.6-0.5,0.9c0,0.5,0.3,0.9,0.8,1.2c0.5,0.4,1.4,0.5,2.6,0.5c1.8,0,2.6-0.4,2.6-1.3
		c0-0.3-0.1-0.6-0.5-0.8c-0.3-0.2-0.7-0.3-1-0.3h-2.4C297.7,38.9,297.1,38.8,296.5,38.6z M299,33.6c1.2,0,1.9-0.6,1.9-1.8
		c0-0.4-0.2-0.8-0.5-1.1c-0.3-0.3-0.8-0.5-1.4-0.5c-0.6,0-1.1,0.2-1.4,0.5c-0.3,0.3-0.5,0.7-0.5,1.2c0,0.5,0.2,0.9,0.5,1.2
		C298,33.5,298.4,33.6,299,33.6z M304.2,27.1v1.8h-0.7c-0.3,0-0.6,0-0.8,0.1c-0.2,0.1-0.5,0.3-0.7,0.7c0.8,0.7,1.2,1.4,1.2,2.2
		c0,0.9-0.4,1.6-1.1,2.2c-0.8,0.6-1.7,0.9-3,0.9c-0.5,0-1.2-0.1-1.9-0.3c-0.5,0.2-0.7,0.5-0.7,1c0,0.3,0.1,0.5,0.3,0.7
		c0.2,0.2,0.6,0.3,1,0.3h3c1,0,1.8,0.3,2.4,0.8c0.6,0.5,0.9,1.2,0.9,2c0,1-0.4,1.7-1.3,2.4c-0.9,0.6-2.2,0.9-3.9,0.9
		c-3.3,0-4.9-0.9-4.9-2.7c0-0.9,0.5-1.6,1.5-2.1c-0.6-0.5-0.9-1.1-0.9-1.7c0-0.9,0.5-1.6,1.6-2.1c-0.9-0.6-1.4-1.3-1.4-2.3
		c0-0.8,0.3-1.6,1-2.1c0.7-0.6,1.7-0.9,3.1-0.9c0.6,0,1.3,0.1,2,0.2c0.3-1.3,1.1-1.9,2.4-1.9H304.2z"/>
	<path class="st0" d="M313.7,29.1l-3.9,11.5c-0.2,0.7-0.6,1.3-1,1.6c-0.4,0.4-1,0.6-1.8,0.6c-0.3,0-0.7,0-1.3-0.1v-1.8l1.1,0
		c0.5,0,0.8-0.1,1.1-0.2c0.2-0.2,0.4-0.4,0.5-0.8c0.1-0.4,0.2-0.6,0.2-0.7c0,0-0.1-0.2-0.2-0.6l-3.5-9.5h2.4l2.4,6.7l2.1-6.7H313.7z
		"/>
	<path class="st0" d="M325.7,33.9l-2-6.1l-2,6.1H325.7z M330,39.2h-2.6l-1.1-3.2h-5.3l-1.1,3.2h-2.1l4.5-13.6h3L330,39.2z"/>
	<path class="st0" d="M332.8,38.6c-0.3,0.3-0.5,0.6-0.5,0.9c0,0.5,0.3,0.9,0.8,1.2c0.5,0.4,1.4,0.5,2.6,0.5c1.8,0,2.6-0.4,2.6-1.3
		c0-0.3-0.2-0.6-0.5-0.8c-0.3-0.2-0.7-0.3-1-0.3h-2.4C334,38.9,333.5,38.8,332.8,38.6z M335.3,33.6c1.2,0,1.9-0.6,1.9-1.8
		c0-0.4-0.2-0.8-0.5-1.1c-0.3-0.3-0.8-0.5-1.4-0.5s-1.1,0.2-1.4,0.5c-0.3,0.3-0.5,0.7-0.5,1.2c0,0.5,0.2,0.9,0.5,1.2
		C334.3,33.5,334.8,33.6,335.3,33.6z M340.5,27.1v1.8h-0.7c-0.3,0-0.6,0-0.8,0.1c-0.2,0.1-0.5,0.3-0.7,0.7c0.8,0.7,1.2,1.4,1.2,2.2
		c0,0.9-0.4,1.6-1.1,2.2c-0.8,0.6-1.7,0.9-3,0.9c-0.5,0-1.2-0.1-1.9-0.3c-0.5,0.2-0.7,0.5-0.7,1c0,0.3,0.1,0.5,0.3,0.7
		c0.2,0.2,0.6,0.3,1,0.3h3c1,0,1.8,0.3,2.4,0.8c0.6,0.5,0.9,1.2,0.9,2c0,1-0.4,1.7-1.3,2.4c-0.9,0.6-2.2,0.9-3.9,0.9
		c-3.3,0-4.9-0.9-4.9-2.7c0-0.9,0.5-1.6,1.5-2.1c-0.6-0.5-0.9-1.1-0.9-1.7c0-0.9,0.5-1.6,1.6-2.1c-0.9-0.6-1.4-1.3-1.4-2.3
		c0-0.8,0.3-1.6,1-2.1c0.7-0.6,1.7-0.9,3.1-0.9c0.6,0,1.3,0.1,1.9,0.2c0.3-1.3,1.1-1.9,2.4-1.9H340.5z"/>
	<path class="st0" d="M347.8,32.9c0-0.7-0.2-1.3-0.7-1.8c-0.4-0.5-1-0.7-1.6-0.7c-0.6,0-1.2,0.2-1.6,0.6c-0.4,0.4-0.7,1-0.7,1.8
		H347.8z M348,35.9l2.1,0.3c-0.3,0.9-0.8,1.7-1.6,2.3c-0.8,0.6-1.7,0.9-2.9,0.9c-1.4,0-2.5-0.5-3.4-1.4c-0.9-0.9-1.3-2.2-1.3-3.8
		c0-1.5,0.4-2.8,1.3-3.8c0.9-1,2-1.5,3.5-1.5c1.4,0,2.6,0.5,3.3,1.5c0.8,1,1.2,2.3,1.2,3.8l0,0.3h-6.9c0,0.7,0.1,1.2,0.2,1.7
		c0.1,0.4,0.4,0.8,0.8,1.1c0.4,0.3,0.9,0.5,1.5,0.5C346.8,37.6,347.6,37,348,35.9z"/>
	<path class="st0" d="M360.2,39.2h-2.3v-6.3c0-0.7-0.2-1.2-0.5-1.5c-0.3-0.3-0.7-0.5-1.1-0.5c-0.6,0-1.1,0.3-1.6,0.8
		c-0.4,0.5-0.7,1.3-0.7,2.3v5.2h-2.3V29.1h2.1v2.3c0.7-1.7,1.7-2.6,3.1-2.6c0.9,0,1.7,0.3,2.3,0.8c0.6,0.6,0.9,1.5,0.9,3V39.2z"/>
	<path class="st0" d="M367.9,35.5l2,0.2c-0.3,1.3-0.7,2.2-1.5,2.8c-0.7,0.6-1.6,0.9-2.6,0.9c-1.4,0-2.5-0.5-3.2-1.5
		c-0.8-1-1.1-2.3-1.1-3.7c0-1.5,0.4-2.8,1.2-3.8c0.8-1,1.9-1.5,3.3-1.5c2.2,0,3.5,1.2,3.9,3.5l-2,0.3c-0.2-1.3-0.8-1.9-1.8-1.9
		c-0.8,0-1.3,0.3-1.7,1c-0.4,0.7-0.5,1.5-0.5,2.4c0,1,0.2,1.8,0.5,2.4c0.4,0.5,0.9,0.8,1.5,0.8C366.9,37.4,367.6,36.7,367.9,35.5z"
		/>
	<path class="st0" d="M378,29.1l-3.9,11.5c-0.2,0.7-0.6,1.3-1,1.6c-0.4,0.4-1,0.6-1.8,0.6c-0.3,0-0.7,0-1.3-0.1v-1.8l1.1,0
		c0.5,0,0.8-0.1,1.1-0.2c0.2-0.2,0.4-0.4,0.5-0.8c0.1-0.4,0.2-0.6,0.2-0.7c0,0-0.1-0.2-0.2-0.6l-3.5-9.5h2.4l2.5,6.7l2.1-6.7H378z"
		/>
	<path class="st1" d="M42.6,43.4c14.7-10,21.8-24.9,15.9-33.4c-5.9-8.5-22.7-7.2-37.4,2.8C6.4,22.8-0.7,37.8,5.3,46.2
		C11.2,54.7,27.9,53.4,42.6,43.4z M2.1,48.4c-6.3-8.9,2-25.2,18.5-36.4C37,0.8,55.4-1,61.7,7.9c6.3,8.9-2,25.2-18.5,36.4
		C26.8,55.4,8.3,57.3,2.1,48.4z"/>
	<path class="st2" d="M37.1,9c2.5,0,4.6-2,4.6-4.5c0-2.5-2-4.5-4.6-4.5c-2.5,0-4.6,2-4.6,4.5C32.6,7,34.6,9,37.1,9z"/>
	<path class="st3" d="M17.3,16.6V30c0,2-1.6,3.6-3.7,3.6H11v6.1h3.1c5.2,0,9.5-4.2,9.5-9.3V16.6H17.3z"/>
	<path class="st3" d="M51,16.6h-5.6h-6.2h-8.7c-3.5,0-6.6,2.8-6.6,6.2c0,2.7,1.3,4.4,3.3,5.9l4.5,3.3c1.3,1.2,0.4,2.4-1.4,2.4H24
		v5.3h8.3c3.5,0,6.4-2.2,6.4-6.3c0-3.3-1.9-4.6-2.9-5.6c-1-0.9-4-2.8-5.3-3.9c-0.9-0.9-0.2-1.8,1.1-1.8h7.8v17.6h6.2V22.1H51V16.6z"
		/>
</g>
</svg>
